<svg width="30" height="24" viewBox="0 0 30 24" fill="none" xmlns="http://www.w3.org/2000/svg">
<g id="Frame">
<path id="Vector" d="M8.25 13.5C10.3172 13.5 12 11.8172 12 9.75C12 7.68281 10.3172 6 8.25 6C6.18281 6 4.5 7.68281 4.5 9.75C4.5 11.8172 6.18281 13.5 8.25 13.5ZM25.5 6H14.25C13.8375 6 13.5 6.3375 13.5 6.75V15H3V2.25C3 1.83562 2.66438 1.5 2.25 1.5H0.75C0.335766 1.5 0 1.83562 0 2.25V21.75C0 22.1625 0.335766 22.5 0.75 22.5H2.25C2.66438 22.5 3 22.1625 3 21.75V19.5H27V21.75C27 22.1642 27.3358 22.5 27.75 22.5H29.25C29.6642 22.5 30 22.1642 30 21.75V10.5C30 7.97344 27.9844 6 25.5 6Z" fill="black"/>
</g>
</svg>
