<svg width="30" height="30" viewBox="0 0 30 30" fill="none" xmlns="http://www.w3.org/2000/svg">
<g id="Layer_1">
<path id="Vector" d="M23.0002 3H17.0002C16.4882 3 15.9762 3.195 15.5862 3.586L3.58624 15.586C2.80524 16.367 2.80524 17.633 3.58624 18.414L11.5862 26.414C12.3672 27.195 13.6332 27.195 14.4142 26.414C14.8052 26.023 26.0232 14.805 26.4142 14.414C26.8052 14.024 27.0002 13.512 27.0002 13V7C27.0002 4.791 25.2092 3 23.0002 3ZM23.0002 9C21.8952 9 21.0002 8.105 21.0002 7C21.0002 5.895 21.8952 5 23.0002 5C24.1052 5 25.0002 5.895 25.0002 7C25.0002 8.105 24.1052 9 23.0002 9Z" fill="black"/>
</g>
</svg>
